<svg id="Icons" xmlns="http://www.w3.org/2000/svg" viewBox="0 0 27 32"><defs><style>.cls-1{fill:#373636;}</style></defs><title>Icon-Library-1.7stroke</title><path class="cls-1" d="M6.18,11.27L4.64,11l0.14-.77C6,3.63,9.09,0,13.58,0s7.56,3.62,8.65,10.2L22.35,11l-1.55.26-0.13-.78C20,6.41,18.24,1.57,13.58,1.57S7.05,6.43,6.32,10.5Z"/><path class="cls-1" d="M25.43,11.5L23.16,30.43H3.84L1.57,11.5H25.43m0-1.57H1.57A1.57,1.57,0,0,0,0,11.69L2.28,30.61A1.57,1.57,0,0,0,3.84,32H23.16a1.57,1.57,0,0,0,1.56-1.39L27,11.69a1.57,1.57,0,0,0-1.56-1.76h0Zm0,3.15h0Z"/></svg>